<svg width="28" height="28" viewBox="0 0 28 28" fill="none" xmlns="http://www.w3.org/2000/svg">
<path d="M7.094 24.5684L3.66242 28C1.36742 25.0594 0 21.3596 0 17.3403C0 7.76354 7.76353 0 17.3403 0C21.3596 0 25.0594 1.36742 28 3.66242L9.40254 22.2599C8.51496 20.8313 8.00323 19.1465 8.00323 17.3403C8.00323 13.0637 10.8784 9.45859 14.8013 8.3526C15.3865 9.1135 16.3062 9.60387 17.3403 9.60387C19.1084 9.60387 20.5416 8.17061 20.5416 6.40258C20.5416 4.63455 19.1084 3.20129 17.3403 3.20129C16.0167 3.20129 14.8807 4.00457 14.3933 5.15023C8.89047 6.47581 4.80193 11.4306 4.80193 17.3403C4.80193 20.0311 5.65092 22.5259 7.094 24.5684Z" fill="#F04148"/>
</svg>
