<svg width="28" height="28" viewBox="0 0 28 28" fill="none" xmlns="http://www.w3.org/2000/svg">
<path d="M28.0001 10.6597C28.0001 20.2365 20.2365 28.0001 10.6597 28.0001C6.64048 28.0001 2.94063 26.6326 0 24.3376L18.5975 5.74012C19.4851 7.16873 19.9968 8.85362 19.9968 10.6597C19.9968 14.9364 17.1216 18.5415 13.1988 19.6475C12.6135 18.8865 11.6939 18.3962 10.6597 18.3962C8.89169 18.3962 7.45842 19.8294 7.45842 21.5975C7.45842 23.3655 8.89169 24.7988 10.6597 24.7988C11.9833 24.7988 13.1193 23.9955 13.6068 22.8498C19.1096 21.5242 23.1981 16.5694 23.1981 10.6597C23.1981 7.96878 22.3491 5.47407 20.906 3.43159L24.3376 0C26.6326 2.94063 28.0001 6.64048 28.0001 10.6597Z" fill="#FFAF2E"/>
</svg>
