<svg width="17" height="155" viewBox="0 0 17 155" fill="none" xmlns="http://www.w3.org/2000/svg">
<path opacity="0.35" d="M14.2217 0.0997737C14.3711 0.0651201 14.5204 0.0322637 14.6638 0C15.5063 5.40715 16.3367 12.6623 16.6235 20.1433C16.982 29.5499 16.4741 39.3449 14.0066 46.2703C10.9654 54.8261 10.9655 65.2174 11.7302 74.8905C12.0529 79.0262 12.5189 83.0239 12.9491 86.6871V86.6876V86.7014C13.0208 87.315 13.0925 87.9196 13.1582 88.5135C13.6362 92.651 14.0245 96.2939 14.0245 99.105C14.0245 99.7156 14.0245 100.314 14.0245 100.902C14.0484 105.695 14.0664 109.847 12.734 114.765C11.2463 120.289 8.0617 126.766 1.32218 136.23C0.485715 137.416 0.288543 139.089 0.569356 141.064C0.844194 143.035 1.58513 145.269 2.57694 147.539C3.69421 150.105 5.12218 152.704 6.53222 155C6.33505 154.961 6.13191 154.92 5.93474 154.88C4.58445 152.658 3.23412 150.175 2.16464 147.719C1.16686 145.431 0.408038 143.154 0.12125 141.127C-0.159564 139.105 0.0196877 137.293 0.951749 135.97V135.969C7.67932 126.527 10.828 120.099 12.2978 114.648C13.6122 109.791 13.5943 105.7 13.5764 100.903V100.902C13.5764 100.314 13.5704 99.7162 13.5704 99.105C13.5704 96.3243 13.1881 92.7084 12.7101 88.5649C12.6444 87.9692 12.5727 87.3622 12.501 86.7456V86.7408V86.7402C12.0708 83.0777 11.6047 79.0704 11.2761 74.9257C10.5114 65.2419 10.5114 54.7699 13.5824 46.1191C16.0141 39.2786 16.528 29.5565 16.1695 20.16C15.8887 12.7119 15.0642 5.48721 14.2217 0.0997737Z" fill="white"/>
</svg>
