<svg width="17" height="142" viewBox="0 0 17 142" fill="none" xmlns="http://www.w3.org/2000/svg">
<path opacity="0.35" d="M1.70002 141.559C1.9153 141.707 2.13655 141.854 2.36976 142C1.48474 139.899 0.826986 137.843 0.569851 136.014C0.294777 134.037 0.486102 132.362 1.32329 131.175C8.06858 121.703 11.2558 115.22 12.7508 109.692C14.0784 104.769 14.0604 100.613 14.0425 95.8168V95.8072C14.0365 95.2218 14.0365 94.6262 14.0365 94.018C14.0365 91.2045 13.6538 87.5586 13.1754 83.4175C13.1037 82.8231 13.0319 82.2179 12.9602 81.6038V81.5901V81.5894C12.5296 77.9232 12.0632 73.922 11.7403 69.7828C10.9748 60.1014 10.9748 49.7012 14.0245 41.138C16.4882 34.2067 16.9965 24.4033 16.6377 14.9886C16.4344 9.6868 15.962 4.49866 15.3999 0C15.2564 0.0783364 15.1129 0.156676 14.9754 0.235012C15.5255 4.67985 15.9859 9.78787 16.1833 15.0053C16.5421 24.4099 16.0278 34.1403 13.594 40.9867C10.5203 49.6449 10.5204 60.1259 11.2858 69.8181C11.6147 73.9669 12.0811 77.977 12.5117 81.6427V81.6433V81.6481C12.5834 82.2652 12.6552 82.8727 12.7269 83.4689C13.2053 87.616 13.582 91.235 13.582 94.018C13.582 94.6292 13.588 95.2266 13.588 95.8132V95.818C13.606 100.619 13.6239 104.714 12.3143 109.575C10.8373 115.03 7.68588 121.463 0.952536 130.913V130.914C0.0196751 132.238 -0.159693 134.052 0.121361 136.076C0.360556 137.775 0.934596 139.649 1.70002 141.559Z" fill="white"/>
</svg>
