<svg width="34" height="113" viewBox="0 0 34 113" fill="none" xmlns="http://www.w3.org/2000/svg">
<path opacity="0.35" fill-rule="evenodd" clip-rule="evenodd" d="M12.0739 2.44288C11.3517 1.5488 10.6892 0.729941 10.1162 0L9.75813 0.278132C10.3371 1.01703 11.0115 1.84305 11.7396 2.7419C14.0852 5.636 17.0515 9.28869 19.5583 13.2404C22.8529 18.4258 25.3238 24.066 24.6315 29.1183C24.1779 32.38 24.8882 35.7838 26.0461 39.1823C26.8458 41.5368 27.8604 43.9069 28.8572 46.234C29.2988 47.2612 29.7405 48.28 30.1523 49.2851C31.5071 52.5808 32.6053 55.7364 32.7844 58.6388C32.9575 61.5275 32.2174 64.1602 29.8837 66.4318C25.3955 70.8115 24.4704 74.7739 23.5811 78.5555C23.4677 79.0491 23.3542 79.5397 23.2289 80.0279C22.7037 82.1378 22.0472 84.1993 20.6326 86.2853C19.2181 88.3706 17.0396 90.4942 13.4526 92.7067C12.056 93.5668 10.7906 95.186 9.71034 97.1192C8.62408 99.0584 7.70501 101.338 7.01864 103.55C6.3263 105.761 5.86069 107.913 5.68164 109.596C5.59211 110.437 5.56826 111.171 5.63392 111.741C5.65182 111.92 5.68168 112.086 5.72346 112.237C4.10601 111.316 2.40501 110.056 0.883054 108.694C0.0594077 104.956 0.435417 100.472 1.84994 96.5271C3.27043 92.5539 5.71747 89.1656 8.98221 87.6204C12.0142 86.1868 13.6138 84.3825 14.4732 82.3276C15.3207 80.287 15.4282 78.019 15.5058 75.6895C15.5117 75.5946 15.5117 75.4997 15.5177 75.4042C15.5893 73.1523 15.6669 70.8383 16.3592 68.5405C17.0754 66.1543 18.4542 63.7795 21.1937 61.5323C23.9153 59.3031 24.8344 57.0417 24.6613 54.7462C24.5002 52.4758 23.2707 50.2126 21.8144 47.966C21.3548 47.2564 20.8714 46.5497 20.3939 45.8425C19.3375 44.2913 18.2751 42.7395 17.4574 41.165C16.2638 38.8803 15.6072 36.6003 16.1862 34.2923C19.1405 22.5142 11.9664 14.9104 9.71034 12.8137L9.40004 13.1443C11.6263 15.2094 18.6392 22.6527 15.7445 34.1825C15.1298 36.6475 15.8459 39.0486 17.0575 41.3733C17.8872 42.9722 18.9734 44.561 20.0358 46.1236C20.5192 46.8255 20.9907 47.522 21.4384 48.2113C22.8947 50.4555 24.0585 52.634 24.2137 54.779C24.3689 56.899 23.5452 59.0268 20.9131 61.1832C18.096 63.4882 16.6696 65.9406 15.9295 68.411C15.2192 70.7661 15.1417 73.1332 15.0641 75.3732C15.0641 75.4734 15.0581 75.5743 15.0581 75.6746C14.9746 78.0154 14.8671 80.2016 14.0554 82.1545C13.2496 84.0925 11.7337 85.8203 8.79125 87.2128C5.3773 88.8278 2.8646 92.3391 1.4262 96.3755C-0.0181618 100.414 -0.412149 105.018 0.459244 108.864L0.477167 108.934L0.530936 108.982C2.2976 110.57 4.31491 112.033 6.17706 113L6.41582 112.616C6.35016 112.572 6.2785 112.482 6.21881 112.322C6.15913 112.163 6.11139 111.953 6.08155 111.691C6.02187 111.167 6.03974 110.469 6.12927 109.645C6.30236 107.997 6.76198 105.874 7.44835 103.685C8.12875 101.494 9.03593 99.2446 10.1043 97.34C11.1726 95.429 12.3902 93.8903 13.6913 93.0905C17.3142 90.8529 19.5464 88.6882 21.0086 86.5383C22.4649 84.3885 23.1394 82.2667 23.6706 80.1372C23.7899 79.6442 23.9093 79.1506 24.0227 78.6552C24.9061 74.8837 25.8073 71.0389 30.2001 66.7547C32.6412 64.3769 33.4111 61.6087 33.232 58.6114C33.053 55.6277 31.925 52.4119 30.5701 49.1138C30.1523 48.0944 29.7106 47.0678 29.263 46.0364C28.2722 43.7177 27.2636 41.3751 26.4698 39.0372C25.3239 35.6645 24.6375 32.3394 25.0732 29.1797C25.7954 23.9573 23.2408 18.1972 19.9403 12.9987C17.4156 9.0219 14.4255 5.33877 12.0739 2.44288Z" fill="white"/>
</svg>
