<svg width="25" height="24" viewBox="0 0 25 24" fill="none" xmlns="http://www.w3.org/2000/svg">
<path d="M12.9376 19.4869L18.5994 23.074C19.3231 23.5326 20.2217 22.8506 20.0069 22.0058L18.3711 15.5709C18.325 15.3917 18.3305 15.2031 18.3869 15.0268C18.4432 14.8505 18.5482 14.6938 18.6897 14.5745L23.7668 10.3487C24.4339 9.79343 24.0896 8.68627 23.2325 8.63064L16.6021 8.20033C16.4235 8.18757 16.2522 8.12434 16.1081 8.018C15.9641 7.91166 15.8532 7.76659 15.7884 7.59968L13.3156 1.37235C13.2483 1.19519 13.1288 1.04267 12.9729 0.935042C12.8169 0.827415 12.6319 0.769774 12.4424 0.769774C12.2529 0.769774 12.0679 0.827415 11.912 0.935042C11.756 1.04267 11.6365 1.19519 11.5693 1.37235L9.09642 7.59968C9.03163 7.76659 8.92076 7.91166 8.77671 8.018C8.63266 8.12434 8.46137 8.18757 8.28278 8.20033L1.65234 8.63064C0.795242 8.68627 0.450915 9.79343 1.11803 10.3487L6.19519 14.5745C6.33668 14.6938 6.44164 14.8505 6.49799 15.0268C6.55434 15.2031 6.55979 15.3917 6.51373 15.5709L4.99669 21.5386C4.73898 22.5523 5.81724 23.3707 6.68571 22.8204L11.9472 19.4869C12.0952 19.3927 12.267 19.3427 12.4424 19.3427C12.6178 19.3427 12.7896 19.3927 12.9376 19.4869V19.4869Z" stroke="#217BF4" stroke-width="1.5" stroke-linecap="round" stroke-linejoin="round"/>
</svg>
