<svg width="56" height="55" viewBox="0 0 56 55" fill="none" xmlns="http://www.w3.org/2000/svg">
<path d="M44.2409 11.7381C51.0361 10.4478 50.0421 15.9502 49.6505 16.846C65.8855 21.3189 46.1505 54.1129 43.7288 54.7955L43.7108 48.6762C43.6867 46.2376 48.4577 43.7527 45.8493 39.4671C42.3854 33.7779 41.6324 44.9569 41.6324 44.9569C39.1746 43.6629 38.283 34.3858 40.5722 29.1364C32.536 32.6816 27.265 26.0773 26.2469 24.1906C20.5782 27.4864 11.8914 26.1629 9.09619 23.449C8.6504 24.9629 7.76488 27.7809 7.76488 32.7159C1.28294 29.2255 -2.06044 16.3406 1.36728 17.5165C0.927522 -8.14261 23.5722 1.08271 26.2469 4.13211C28.9156 7.18151 29.5481 6.32729 29.8975 6.09898C39.4396 1.44114 44.0782 6.05682 43.1867 8.99779C42.2891 11.9388 43.9758 11.7972 44.2409 11.7381Z" fill="#6E000E"/>
</svg>
