<svg width="17" height="142" viewBox="0 0 17 142" fill="none" xmlns="http://www.w3.org/2000/svg">
<path opacity="0.35" d="M5.4345 142C4.2556 139.996 3.09456 137.817 2.15383 135.657C1.1595 133.377 0.403396 131.108 0.123556 129.088C-0.162237 127.073 0.0223407 125.267 0.945215 123.949L0.951102 123.948C7.65534 114.538 10.7932 108.133 12.2579 102.701C13.5618 97.861 13.5498 93.7837 13.532 89.0038C13.526 88.4179 13.5261 87.8219 13.5261 87.2122C13.5261 84.4412 13.145 80.8372 12.6687 76.7087C12.5972 76.1139 12.5317 75.509 12.4603 74.8939V74.891C12.0316 71.2405 11.5672 67.2472 11.2397 63.1169C10.4776 53.466 10.4716 43.0304 13.5379 34.4095C15.9612 27.5934 16.4733 17.905 16.1161 8.54105C16.0029 5.62715 15.8124 2.74778 15.5623 0C15.729 0.108959 15.8839 0.217924 16.0446 0.326883C16.2768 2.97107 16.4614 5.73135 16.5626 8.52379C16.9199 17.8984 16.4138 27.6588 13.9607 34.5602C10.9301 43.0863 10.9241 53.4416 11.6862 63.0811C12.0137 67.2031 12.4781 71.1869 12.9068 74.8374C12.9783 75.4536 13.0438 76.0603 13.1152 76.6569C13.5915 80.7801 13.9726 84.4102 13.9726 87.2122C13.9726 87.8201 13.9785 88.4161 13.9785 89.0026C13.9964 93.7789 14.0143 97.9164 12.6925 102.818C11.204 108.322 8.03646 114.778 1.31436 124.208C0.486752 125.389 0.290269 127.057 0.570108 129.026C0.843994 130.989 1.58228 133.215 2.57065 135.478C3.5233 137.673 4.70814 139.892 5.91085 141.923C5.75605 141.949 5.59526 141.975 5.4345 142Z" fill="white"/>
</svg>
