<svg width="17" height="152" viewBox="0 0 17 152" fill="none" xmlns="http://www.w3.org/2000/svg">
<path opacity="0.35" d="M5.27768 151.942C4.15176 150.013 3.05563 147.933 2.15609 145.871C1.16123 143.589 0.404635 141.319 0.124645 139.298C-0.161304 137.281 0.0174169 135.474 0.946748 134.156V134.155C7.65462 124.74 10.8 118.331 12.2655 112.897C13.5702 108.054 13.5523 103.974 13.5344 99.1918V99.1901C13.5344 98.6045 13.5285 98.0087 13.5285 97.3993C13.5285 94.6268 13.1531 91.0209 12.6765 86.8901C12.6051 86.2938 12.5336 85.6874 12.4621 85.0714V85.0708C12.0391 81.419 11.5686 77.4234 11.2469 73.2909C10.4843 63.6348 10.4784 53.1935 13.5464 44.568C15.971 37.7481 16.4773 28.0545 16.1258 18.6855C15.8637 11.8889 15.1548 5.27873 14.3922 0.0881735C14.5412 0.0607701 14.6901 0.0309777 14.8331 0C15.5956 5.20843 16.3165 11.8442 16.5726 18.6682C16.9301 28.0479 16.4237 37.8137 13.9693 44.7187C10.9371 53.2495 10.9311 63.6104 11.6937 73.2552C12.0213 77.3788 12.4859 81.3648 12.9089 85.0166V85.0172C12.9804 85.6343 13.0519 86.2414 13.1233 86.8383C13.5999 90.9637 13.9812 94.5958 13.9812 97.3993C13.9812 98.0075 13.9812 98.6044 13.9872 99.1912C14.0051 103.97 14.0229 108.109 12.7004 113.014C11.2111 118.521 8.04184 124.98 1.3161 134.415C0.48208 135.597 0.291442 137.266 0.565476 139.235C0.845466 141.2 1.58416 143.427 2.5671 145.691C3.50239 147.837 4.65809 150.005 5.83167 152C5.64699 151.981 5.46236 151.961 5.27768 151.942Z" fill="white"/>
</svg>
