<svg width="63" height="70" viewBox="0 0 63 70" fill="none" xmlns="http://www.w3.org/2000/svg">
<path opacity="0.35" fill-rule="evenodd" clip-rule="evenodd" d="M62.4704 0C58.0791 11.8266 56.8577 28.8227 58.8418 41.7123C59.8309 48.1413 60.3612 53.7874 59.5092 58.4098C58.6631 63.0156 56.4466 66.5978 51.9284 68.9239C50.2553 69.7855 48.7079 69.6782 47.0777 69.083C45.8652 68.6403 44.6277 67.936 43.268 67.1632C42.7776 66.8838 42.2712 66.596 41.7445 66.3082C37.7858 64.1435 32.8297 62.079 25.4288 64.3562C19.6606 66.1312 13.9335 64.2847 9.36764 61.4152C4.79643 58.5427 1.43713 54.6746 0.406942 52.4909L0 52.6833C1.07667 54.9665 4.50743 58.8925 9.12809 61.7966C13.7529 64.703 19.6189 66.615 25.5611 64.787C32.7981 62.5598 37.6225 64.5672 41.5282 66.7032C42.0358 66.9803 42.531 67.2621 43.0148 67.5374C44.3864 68.3173 45.6728 69.049 46.9234 69.506C48.6359 70.131 50.3197 70.2585 52.1346 69.3243C56.7981 66.9249 59.0861 63.2129 59.9501 58.4915C60.82 53.7868 60.2718 48.0728 59.2827 41.6438C57.3105 28.8179 58.532 11.9011 62.8935 0.156704L62.4704 0ZM53.1367 13.1178C53.2803 12.3569 53.4126 11.6562 53.5276 11.0258L53.0849 10.9448C52.9705 11.5722 52.8388 12.2705 52.6953 13.0302C51.9213 17.1355 50.8106 23.0229 50.2279 29.0461C49.5379 36.1723 49.5796 43.5457 51.8271 48.3981C54.4684 54.0978 53.3995 58.0392 51.0192 59.984C48.6221 61.9419 44.807 61.9592 41.7731 59.6331C40.1309 58.3741 37.5218 56.8327 34.1327 56.3775C30.7377 55.9217 26.5812 56.558 21.8544 59.623C20.6461 60.4065 18.7448 60.5423 16.573 60.1217C14.4114 59.7034 12.0268 58.7423 9.89077 57.3946C7.75353 56.0462 5.87965 54.3195 4.72493 52.3789C3.5726 50.443 3.13942 48.301 3.86097 46.0964L3.43315 45.9564C2.66274 48.3099 3.13404 50.5866 4.33821 52.6094C5.5394 54.6275 7.4729 56.4013 9.65006 57.7753C11.829 59.1499 14.2653 60.1336 16.4872 60.5638C18.6989 60.9916 20.7444 60.8796 22.0993 60.0007C26.742 56.9906 30.7913 56.3828 34.0726 56.8238C37.3592 57.2653 39.8956 58.7614 41.499 59.9906C44.673 62.424 48.7216 62.4418 51.304 60.3326C53.9018 58.2103 54.9272 54.0174 52.2358 48.2086C50.0438 43.4777 49.9866 36.2152 50.676 29.0896C51.2569 23.0884 52.3628 17.2243 53.1367 13.1178Z" fill="white"/>
</svg>
