<svg width="17" height="154" viewBox="0 0 17 154" fill="none" xmlns="http://www.w3.org/2000/svg">
<path opacity="0.35" d="M5.97799 153.991C4.60894 151.751 3.23987 149.237 2.15654 146.751C1.16249 144.471 0.40651 142.203 0.120796 140.183C-0.158966 138.168 0.019614 136.363 0.948186 135.045V135.045C7.65057 125.638 10.7875 119.234 12.2577 113.804C13.5613 108.965 13.5434 104.889 13.5256 100.11C13.5256 99.5244 13.5196 98.9286 13.5196 98.3191C13.5196 95.5488 13.1447 91.9458 12.6685 87.8185C12.597 87.2232 12.5256 86.6173 12.4542 86.0018V86.0006C12.0316 82.3518 11.5613 78.3595 11.2399 74.2304C10.472 64.5822 10.472 54.1494 13.5375 45.531C15.9601 38.7167 16.466 29.0309 16.1148 19.6696C15.8351 12.394 15.0375 5.33214 14.222 0C14.3827 0.0767857 14.5434 0.154761 14.7101 0.233332C15.5137 5.54464 16.2875 12.4946 16.5613 19.6524C16.9184 29.0244 16.4125 38.7822 13.9601 45.6816C10.9303 54.2054 10.9244 64.5578 11.6863 74.1947C12.0137 78.3155 12.478 82.2982 12.9006 85.9476V85.9554C12.972 86.569 13.0435 87.1732 13.1149 87.7667C13.5911 91.8887 13.972 95.5179 13.972 98.3191C13.972 98.9268 13.972 99.522 13.978 100.108V100.11C13.9958 104.884 14.0137 109.02 12.6922 113.921C11.2041 119.423 8.03747 125.877 1.31723 135.304C0.483897 136.486 0.293415 138.153 0.567224 140.121C0.846986 142.084 1.58507 144.31 2.56722 146.571C3.68031 149.126 5.10293 151.714 6.50769 154C6.32912 153.997 6.15656 153.994 5.97799 153.991Z" fill="white"/>
</svg>
